<?xml version="1.0" encoding="utf-8"?>
<!-- Generator: Adobe Illustrator 28.3.0, SVG Export Plug-In . SVG Version: 6.00 Build 0)  -->
<svg version="1.1" xmlns="http://www.w3.org/2000/svg" xmlns:xlink="http://www.w3.org/1999/xlink" x="0px" y="0px"
	 viewBox="0 0 226.8 226.8" style="enable-background:new 0 0 226.8 226.8;" xml:space="preserve">
<style type="text/css">
	.st0{clip-path:url(#SVGID_00000093893966131719142830000004101557039977168034_);}
	.st1{fill:#6E2500;}
	.st2{fill:#EFBFA5;}
	.st3{fill:#DADADA;}
	.st4{fill:#1A7290;}
	.st5{fill:#852D00;}
	.st6{fill:#983302;}
</style>
<g id="Capa_1">
</g>
<g id="OBJECTS">
	<g>
		<defs>
			<circle id="SVGID_1_" cx="113.4" cy="113.4" r="113.4"/>
		</defs>
		<use xlink:href="#SVGID_1_"  style="overflow:visible;fill:#C6C6C6;"/>
		<clipPath id="SVGID_00000033348583020140641570000018068482862331660450_">
			<use xlink:href="#SVGID_1_"  style="overflow:visible;"/>
		</clipPath>
		<g style="clip-path:url(#SVGID_00000033348583020140641570000018068482862331660450_);">
			<path class="st1" d="M150.5,30.8c10.4-2.1,23.1,5.9,25.9,16.4c2.7,10.2-6.1,18.3-2.6,29.3c3,9.5,7.3,22.1,1,31.3
				c-4.9,7.1-17.9,21.4-27.1,15c-2.4-1.7-4-6.6-5.4-9c-3-5.1-7.1-10.5-9.1-16c-2.7-7.6-2.3-19,2.4-25.4c6.2-8.4,12.9-9.8,11.2-20.4
				c-1.1-7-1.6-14.1,2.9-19.8"/>
			<g>
				<rect x="87.8" y="142.7" class="st2" width="39.8" height="23"/>
				<path class="st3" d="M98.9,160.3c6.4-0.2,12.6-2.3,17.5-5.4c4-2.5,7.2-5.6,9.6-9.1c0.5-0.7,1-1.5,1.5-2.3v-0.8H87.8v17.2
					C91.5,160.3,95.2,160.5,98.9,160.3z"/>
			</g>
			<path class="st2" d="M156.9,80.2c0-36.8-22.1-58-49.4-58.2c-0.1,0-0.2,0-0.2,0c0,0,0,0-0.1,0c0,0,0,0,0,0c-0.1,0-0.2,0-0.2,0
				c-27.3,0.2-49.4,21.3-49.4,58.2c0,47.8,34.4,75.6,49.6,75.8l0,0c0,0,0,0,0,0c0,0,0,0,0.1,0v0C122.5,155.8,156.9,127.9,156.9,80.2
				z"/>
			<g>
				<path class="st2" d="M152,93.8l-2.8,21.7c11.1,4.9,12.9-20.6,12.9-20.6C159.5,88.5,152,93.8,152,93.8z"/>
				<path class="st2" d="M53.7,94.9c0,0,1.7,25.6,12.9,20.6l-2.8-21.7C63.8,93.8,56.3,88.5,53.7,94.9z"/>
			</g>
			<path class="st2" d="M87.6,164l-47.8,14.8c0,0-16.7,3-21,20.4l-7.3,31.6h95.4h0.8h95.4l-7.3-31.6c-4.3-17.4-21-20.4-21-20.4
				L126.9,164H87.6z"/>
			<path class="st4" d="M187,184c-9.3-5.8-20.9-8.8-20.9-8.8l-11.1-3.4c0,0-8.4,37.3-47.4,43.2c-39-5.9-47.4-43.2-47.4-43.2
				L39,178.2c-53.5,17.3-29.7,26.6-29.7,26.6s37,12.9,39.7,25.3l58.9,1.9l100.1-7.1C210.7,212.6,196.4,189.8,187,184z"/>
			<path class="st5" d="M83.8,37.6c0,0,8.5,25.9,48.5,39.5c0,0,19.6,3.8,23.7,16.4c0,0,12.2-39.2-0.4-59.2c0,0-30.3-43.4-71.9-12.4
				C83.8,22,76.1,24.9,83.8,37.6z"/>
			<path class="st5" d="M83.3,23.8c0,0-44.5,14.3-25.2,68c0,0,2.9-43.2,31.7-43.6L83.3,23.8z"/>
			<path class="st5" d="M62.2,72.3c0,0-7.3,81.4,22.7,105.7c0,0-35.3-14.3-25.2-105.7H62.2z"/>
			<path class="st5" d="M154.4,72.3c0,0,7.3,81.4-22.7,105.7c0,0,35.3-14.3,25.2-105.7H154.4z"/>
			<path class="st6" d="M89.8,21.4c-1.7,4.1,0.5,10.4,1,14.9c1.9-0.7,2.2-3.3,4-4.4c1.5,2.8,2.5,6.1,4.1,9c2.6,4.8,7.3,13.1,11.9,16
				c1.3-1.8,0.8-4.1,1-6.3c3.1,3.9,6.6,8.4,10.3,11.6c-0.2-1.2,0.3-2.8,0.2-4c4.8,2.6,8,9.1,13,10.8c-0.2-1.3,0.5-2.4,0.6-3.5
				c3.2,2.2,6.5,6.1,9.8,7.6c1.8,0.8,5.4,0.4,6.9,2.2c0-3.1-0.6-8-3.1-9.8c0,0.9-0.4,1.8-0.5,2.3c-1-1.4-2.2-3.5-3.6-4.6
				c0,0.6-0.1,1.2-0.2,1.8c-0.2-0.5-1.4-1.8-1.8-2.6c-0.1,0.5-0.5,1.3-0.5,2.1c-1.6-1.6-2.6-5.1-5.4-5.4c-0.1,0.7-0.8,2.6-0.8,3.1
				c-0.6-2.6-2.2-6.1-5.1-6.3c-0.1,0.6-0.8,2-0.9,2.4c-0.2-1.4-1.2-2.4-1.7-3.7c-0.4,0.3-0.6,0.6-1,0.8c-1.6-3.2-1.3-7.7-3.2-10.7
				c-0.6,1.3-1,3-0.9,4.5c-0.2-1.4-0.9-3-1.8-4c-0.2,0.5-1.1,1.6-1.4,2.3c-1-2-2.9-7.8-4.2-2.6c-0.6-1.1-1.4-2.7-1.8-4.1
				c-0.4,0.9-1.8,2.4-2.2,3.2c-0.8-2.3-2.3-6.5-4.4-3.2c-0.3-1.9-0.9-3.8-2.3-4.9c0.1,1.3-0.3,3.1-0.4,4.1c-0.1-2.6-0.7-5.2-2.4-7.1
				c-0.2,0.9-0.6,2.1-0.4,3.4c0.1-2.4-0.3-4.6-1.5-6.7c-0.4,0.1-0.3,0.6-0.3,0.6c-0.2-3.8-2.3-5.5-4.1-7.9c-0.5,0.1-0.9,0.3-1.4,0.4
				c-0.4-1-1.3-1.5-1.7-2.2c-0.1,1.2-0.7,2.3-0.7,3.5c-0.4-1.8-1.4-2.8-3.1-2.1"/>
			<path class="st6" d="M82,33.2c-1,1.9,0.8,6.3,1.8,8.5c-0.3-1.7-1.5-2.9-3.1-3c0.1,1.1-0.3,2.4,0,3.4c-0.6-1.6-1.4-1.4-2.3-2.1
				c-0.4,1.3-0.6,2.9-0.5,4.4c-0.9-0.4-2.8-0.6-3.6-1.2c-0.5,1.5-0.3,3.3-0.9,4.8c-0.6-0.8-1.3-0.8-1.8-1.2c0.5,2.5-1.4,2.8-1.9,4
				C69,52.8,68,55,67.4,57.3c-0.6-1.2-1.6-2.4-2.3-3.6c-0.5,2.2-0.9,5.1-0.9,7.5C64,61,63.8,61,63.5,60.9c-0.2,1.6-0.6,3.3-1,4.9
				c-0.2-1-0.8-2-0.9-3c-0.2,1.9-0.5,3.8-0.5,5.8c-0.5-0.4-1.3-0.6-1.6-0.8c-0.4,1.6-0.5,3.3-0.5,5c0,0.3,0,0.3,0,0
				c0-0.4-0.1-0.5-0.4-0.4c0,1.3-0.7,2.7-0.9,3.6c-1.3-2.3-2.2-4.7-3-7.2c-0.2,0-0.3,0.1-0.4,0.2c-0.2-1.4,0-3,0.1-4.3
				c0.5,0.1,0.8,0.3,1.2,0.4c0.5-1.5,0.7-3.1,0.5-4.7c0,0.7,0.3,1.7,0.4,2c-0.1-1.2,0.5-2.4,0.6-3.5c0.6,0.3,2,0.1,2.6,0.3
				c-0.2-2.3,0.5-4.5,1.1-6.7c0.2,0.3,1,1,1.3,1.3c0.2-0.7,0.4-1.3,0.5-2.2c0.2,0,0.6,0.5,0.7,0.4c0.3-1.4,0.8-3,1.5-4.1
				c0.4,0.7,1.8,1.6,2.2,2.3c0.5-1.8,0.6-3.5,1.1-5.3c0.2,0.4,0.2,0.8,0.5,1.2c0.5-1.5,1.1-3.8,2.1-5.4c0.5,0.1,0.8,0.2,1.3,0.4
				c0.3-1.1,1.5-1.9,1.9-2.7c0.5,0.4,1.5,0.6,1.9,0.9c0.3-1,1.5-2.1,1.8-3.1c0.5,0,0.4,0.3,0.8,0.4c0.3-1.2,1-1.2,1.9-1.8"/>
			<path d="M156.4,84.1l-8.5-2.7v0.2c-18.9-5.7-35.6,0.1-35.6,0.1c0,0,0,0,0,0c-4.9,1.1-9.3,0.6-12,0.1c-0.5-0.2-1.4-0.4-2.5-0.7v0
				v0c-5.6-1.3-17.8-3.3-31.3,0.5l0-0.2l-8.4,1.6v7.3l7.2,2c1.2,7.8,5.8,16.8,21,15.3c0,0,15.3-1.6,15.9-17.1c0,0,0.1-1.1,0-2.6
				c4.2-3.9,7.7-1.1,9.1,0.4c0,1.1,0,1.9,0,1.9c0.5,15.5,15.9,17.1,15.9,17.1c14.7,1.5,19.5-7,20.9-14.6l8.3-1.4L156.4,84.1z
				 M98.7,91.1c-0.4,12.7-13,14-13,14c-21.2,2.2-17.1-21-17.1-21c15.5-4.7,29.2,0,29.2,0C99,87.1,98.7,91.1,98.7,91.1z M127.6,104.8
				c0,0-12.5-1.3-13-14c0,0-0.3-4,0.9-7c0,0,13.7-4.7,29.2,0C144.8,83.8,148.8,107,127.6,104.8z"/>
		</g>
	</g>
</g>
</svg>
